HIERARCHY
ROOT hip
{
  OFFSET 0.00112043 5.09927 -9.65472
  CHANNELS 6 Xposition Yposition Zposition Zrotation Xrotation Yrotation
  JOINT abdomen
  {
    OFFSET 0 -1.186 -1.5018
    CHANNELS 3 Zrotation Xrotation Yrotation
    JOINT abdomen2
    {
      OFFSET 0 9.964 0.2134
      CHANNELS 3 Zrotation Xrotation Yrotation
      JOINT chest
      {
        OFFSET 0 13.134 -3.2573
        CHANNELS 3 Zrotation Xrotation Yrotation
        JOINT neck
        {
          OFFSET 0 20.686 -1.6905
          CHANNELS 3 Zrotation Xrotation Yrotation
          JOINT head
          {
            OFFSET 0 7.238 -0.1237
            CHANNELS 3 Zrotation Xrotation Yrotation
            End Site
            {
              OFFSET 0 0 0
            }
          }
        }
        JOINT lCollar
        {
          OFFSET 1.7069 20.075 5.0056
          CHANNELS 3 Zrotation Xrotation Yrotation
          JOINT lShldr
          {
            OFFSET 13.6458 -0.047 -4.849
            CHANNELS 3 Zrotation Xrotation Yrotation
            JOINT lForeArm
            {
              OFFSET 28.3255 -0.9759 2.2888
              CHANNELS 3 Zrotation Xrotation Yrotation
              JOINT lHand
              {
                OFFSET 22.1583 -0.53 10.8316
                CHANNELS 3 Zrotation Xrotation Yrotation
                JOINT lThumb1
                {
                  OFFSET 0.786 0.112 2.5817
                  CHANNELS 3 Zrotation Xrotation Yrotation
                  JOINT lThumb2
                  {
                    OFFSET 0.3601 -0.878 4.2331
                    CHANNELS 3 Zrotation Xrotation Yrotation
                    JOINT lThumb2_End
                    {
                      OFFSET 1.8127 -1.216 2.2227
                      CHANNELS 3 Zrotation Xrotation Yrotation
                      End Site
                      {
                        OFFSET 0.0181 -0.0122 0.0222
                      }
                    }
                  }
                }
                JOINT lCarpal1
                {
                  OFFSET 0.9571 1.114 1.7695
                  CHANNELS 3 Zrotation Xrotation Yrotation
                  JOINT lIndex1
                  {
                    OFFSET 4.1246 0.487 4.1451
                    CHANNELS 3 Zrotation Xrotation Yrotation
                    JOINT lIndex2
                    {
                      OFFSET 3.4052 -1.454 2.7682
                      CHANNELS 3 Zrotation Xrotation Yrotation
                      JOINT lIndex2_End
                      {
                        OFFSET 1.4531 -1.795 1.2713
                        CHANNELS 3 Zrotation Xrotation Yrotation
                        End Site
                        {
                          OFFSET 0.0145 -0.0179 0.0127
                        }
                      }
                    }
                  }
                  JOINT lMid1
                  {
                    OFFSET 5.6954 0.21 2.1184
                    CHANNELS 3 Zrotation Xrotation Yrotation
                    JOINT lMid2
                    {
                      OFFSET 3.9766 -1.54 2.3863
                      CHANNELS 3 Zrotation Xrotation Yrotation
                      JOINT lMid2_End
                      {
                        OFFSET 1.4042 -1.926 1.125
                        CHANNELS 3 Zrotation Xrotation Yrotation
                        End Site
                        {
                          OFFSET 0.014 -0.0193 0.0113
                        }
                      }
                    }
                  }
                }
                JOINT lCarpal2
                {
                  OFFSET 2.0956 0.66 -0.3894
                  CHANNELS 3 Zrotation Xrotation Yrotation
                  JOINT lRing1
                  {
                    OFFSET 5.0395 -0.09 2.4971
                    CHANNELS 3 Zrotation Xrotation Yrotation
                    JOINT lRing2
                    {
                      OFFSET 3.7921 -1.552 1.4806
                      CHANNELS 3 Zrotation Xrotation Yrotation
                      JOINT lRing2_End
                      {
                        OFFSET 1.4655 -1.808 0.9609
                        CHANNELS 3 Zrotation Xrotation Yrotation
                        End Site
                        {
                          OFFSET 0.0147 -0.0181 0.0096
                        }
                      }
                    }
                  }
                  JOINT lPinky1
                  {
                    OFFSET 4.9141 -1.269 0.3591
                    CHANNELS 3 Zrotation Xrotation Yrotation
                    JOINT lPinky2
                    {
                      OFFSET 3.1477 -1.685 0.8462
                      CHANNELS 3 Zrotation Xrotation Yrotation
                      JOINT lPinky2_End
                      {
                        OFFSET 0.8055 -1.585 0.7955
                        CHANNELS 3 Zrotation Xrotation Yrotation
                        End Site
                        {
                          OFFSET 0.0081 -0.0158 0.008
                        }
                      }
                    }
                  }
                }
              }
            }
          }
        }
        JOINT rCollar
        {
          OFFSET -1.7069 20.075 5.0056
          CHANNELS 3 Zrotation Xrotation Yrotation
          JOINT rShldr
          {
            OFFSET -13.6458 -0.047 -4.849
            CHANNELS 3 Zrotation Xrotation Yrotation
            JOINT rForeArm
            {
              OFFSET -28.3255 -0.9759 2.2888
              CHANNELS 3 Zrotation Xrotation Yrotation
              JOINT rHand
              {
                OFFSET -22.1583 -0.53 10.8316
                CHANNELS 3 Zrotation Xrotation Yrotation
                JOINT rThumb1
                {
                  OFFSET -0.786 0.112 2.5817
                  CHANNELS 3 Zrotation Xrotation Yrotation
                  JOINT rThumb2
                  {
                    OFFSET -0.3601 -0.878 4.2331
                    CHANNELS 3 Zrotation Xrotation Yrotation
                    JOINT rThumb2_End
                    {
                      OFFSET -1.8127 -1.216 2.2227
                      CHANNELS 3 Zrotation Xrotation Yrotation
                      End Site
                      {
                        OFFSET -0.0181 -0.0122 0.0222
                      }
                    }
                  }
                }
                JOINT rCarpal1
                {
                  OFFSET -0.9571 1.114 1.7695
                  CHANNELS 3 Zrotation Xrotation Yrotation
                  JOINT rIndex1
                  {
                    OFFSET -4.1246 0.487 4.1451
                    CHANNELS 3 Zrotation Xrotation Yrotation
                    JOINT rIndex2
                    {
                      OFFSET -3.4052 -1.454 2.7682
                      CHANNELS 3 Zrotation Xrotation Yrotation
                      JOINT rIndex2_End
                      {
                        OFFSET -1.4531 -1.795 1.2713
                        CHANNELS 3 Zrotation Xrotation Yrotation
                        End Site
                        {
                          OFFSET -0.0145 -0.018 0.0127
                        }
                      }
                    }
                  }
                  JOINT rMid1
                  {
                    OFFSET -5.6954 0.21 2.1184
                    CHANNELS 3 Zrotation Xrotation Yrotation
                    JOINT rMid2
                    {
                      OFFSET -3.9766 -1.54 2.3863
                      CHANNELS 3 Zrotation Xrotation Yrotation
                      JOINT rMid2_End
                      {
                        OFFSET -1.4042 -1.926 1.125
                        CHANNELS 3 Zrotation Xrotation Yrotation
                        End Site
                        {
                          OFFSET -0.014 -0.0193 0.0113
                        }
                      }
                    }
                  }
                }
                JOINT rCarpal2
                {
                  OFFSET -2.0956 0.66 -0.3894
                  CHANNELS 3 Zrotation Xrotation Yrotation
                  JOINT rRing1
                  {
                    OFFSET -5.0395 -0.09 2.4971
                    CHANNELS 3 Zrotation Xrotation Yrotation
                    JOINT rRing2
                    {
                      OFFSET -3.7921 -1.552 1.4806
                      CHANNELS 3 Zrotation Xrotation Yrotation
                      JOINT rRing2_End
                      {
                        OFFSET -1.4655 -1.808 0.9609
                        CHANNELS 3 Zrotation Xrotation Yrotation
                        End Site
                        {
                          OFFSET -0.0147 -0.0181 0.0096
                        }
                      }
                    }
                  }
                  JOINT rPinky1
                  {
                    OFFSET -4.9141 -1.269 0.3592
                    CHANNELS 3 Zrotation Xrotation Yrotation
                    JOINT rPinky2
                    {
                      OFFSET -3.1477 -1.685 0.8462
                      CHANNELS 3 Zrotation Xrotation Yrotation
                      JOINT rPinky2_End
                      {
                        OFFSET -0.8055 -1.585 0.7955
                        CHANNELS 3 Zrotation Xrotation Yrotation
                        End Site
                        {
                          OFFSET -0.0081 -0.0158 0.008
                        }
                      }
                    }
                  }
                }
              }
            }
          }
        }
      }
    }
  }
  JOINT lThigh
  {
    OFFSET 8.367 -8.2066 0.5982
    CHANNELS 3 Zrotation Xrotation Yrotation
    JOINT lShin
    {
      OFFSET 2.1923 -43.463 -0.4932
      CHANNELS 3 Zrotation Xrotation Yrotation
      JOINT lFoot
      {
        OFFSET 0.7333 -45.8593 -2.6451
        CHANNELS 3 Zrotation Xrotation Yrotation
        End Site
        {
          OFFSET 2.6618 -4.2699 12.3931
        }
      }
    }
  }
  JOINT rThigh
  {
    OFFSET -8.367 -8.2066 0.5982
    CHANNELS 3 Zrotation Xrotation Yrotation
    JOINT rShin
    {
      OFFSET -2.1923 -43.463 -0.4931
      CHANNELS 3 Zrotation Xrotation Yrotation
      JOINT rFoot
      {
        OFFSET -0.7333 -45.8593 -2.6451
        CHANNELS 3 Zrotation Xrotation Yrotation
        End Site
        {
          OFFSET -2.6618 -4.2699 12.3931
        }
      }
    }
  }
}
MOTION
Frames:	4
Frame Time:	0.0333333
0 91.7903 2.51682 0 0 -0 0 0 -0 0 0 -0 0 0 -0 0 0 -0 0 0 -0 0 0 -0 1.66051 0.0835086 5.75766 -0.0175111 0.895433 15.7816 7.95139e-016 -1.98785e-016 -0 5.46658e-016 -3.97569e-016 -0 5.96354e-016 0 -0 3.97569e-016 1.98785e-016 9.54166e-015 1.49089e-016 -3.97569e-016 -0 6.4605e-016 0 3.18055e-015 5.96354e-016 0 3.18055e-015 8.94531e-016 -1.98785e-016 6.36111e-015 6.4605e-016 0 3.18055e-015 5.96354e-016 0 3.18055e-015 8.94531e-016 -1.98785e-016 6.36111e-015 1.49089e-016 -3.97569e-016 -0 6.4605e-016 0 3.18055e-015 5.96354e-016 0 3.18055e-015 8.94531e-016 -1.98785e-016 6.36111e-015 6.4605e-016 0 3.18055e-015 5.96354e-016 0 3.18055e-015 8.94531e-016 -1.98785e-016 6.36111e-015 0 0 -0 -1.4496 0.0636048 -5.0245 -1.74811 1.20616 -16.8394 -1.19271e-015 1.98785e-016 -3.18055e-015 -3.97569e-016 1.98785e-016 -3.18055e-015 -2.98177e-016 1.98785e-016 -3.18055e-015 -2.98177e-016 3.97569e-016 -0 4.96962e-016 0 -6.36111e-015 -9.93923e-017 3.97569e-016 -0 -8.94531e-016 5.96354e-016 -0 -3.97569e-016 3.97569e-016 -0 -9.93923e-017 3.97569e-016 -0 -8.94531e-016 5.96354e-016 -0 -3.97569e-016 3.97569e-016 -0 4.96962e-016 0 -6.36111e-015 -9.93923e-017 3.97569e-016 -0 -8.94531e-016 5.96354e-016 -0 -3.97569e-016 3.97569e-016 -0 -9.93923e-017 3.97569e-016 -0 -8.94531e-016 5.96354e-016 -0 -3.97569e-016 3.97569e-016 -0 -4.66111 -0.998717 0.12318 0.00986924 1.54847 0.176523 4.65186 -0.572283 -0.254274 4.66111 -0.998765 -0.123176 -0.00986867 1.54869 -0.176537 -4.65186 -0.572453 0.25427 
0.00116838 23.2863 121.552 -0.0122375 0.0122375 180 -0.148711 18.1235 -0.150812 -0.265787 36.2472 -0.271175 -0.265788 36.2472 -0.271175 -4.51706e-006 -11.01 -1.31345e-006 6.66204e-008 -4.00324 3.99088e-008 54.5829 -55.3716 71.9833 -69.5459 16.4762 -30.9233 53.3083 -10.6883 -84.0783 3.66613 -18.7987 15.0956 1.54714e-007 1.4353e-007 -3.13298e-008 1.54714e-007 1.4353e-007 -3.13298e-008 1.54714e-007 1.4353e-007 -3.13298e-008 2.89663e-032 1.39149e-015 -1.19271e-015 1.54714e-007 1.4353e-007 -3.13298e-008 1.54714e-007 1.4353e-007 -3.13298e-008 1.54714e-007 1.4353e-007 -3.13298e-008 1.54714e-007 1.4353e-007 -3.13298e-008 1.54714e-007 1.4353e-007 -3.13298e-008 1.54714e-007 1.4353e-007 -3.13298e-008 2.89663e-032 1.39149e-015 -1.19271e-015 1.54714e-007 1.4353e-007 -3.13298e-008 1.54714e-007 1.4353e-007 -3.13298e-008 1.54714e-007 1.4353e-007 -3.13298e-008 1.54714e-007 1.4353e-007 -3.13298e-008 1.54714e-007 1.4353e-007 -3.13298e-008 1.54714e-007 1.4353e-007 -3.13298e-008 -30.8519 -34.9242 -61.1352 80.5191 24.5436 32.3682 5.04784 -3.26434 92.3495 -1.20639 -7.77444 -59.8338 3.37934e-015 7.95139e-016 -0 -1.96349e-006 5.26388e-007 -7.89711e-007 -1.62751e-006 -5.49385e-007 -2.00098e-006 1.98785e-016 7.95139e-016 -1.59028e-015 2.78299e-015 -2.38542e-015 4.77083e-015 -1.96349e-006 5.26388e-007 -7.89711e-007 -1.62751e-006 -5.49385e-007 -2.00098e-006 2.78299e-015 -2.38542e-015 4.77083e-015 -1.96349e-006 5.26388e-007 -7.89711e-007 -1.62751e-006 -5.49385e-007 -2.00098e-006 1.98785e-016 7.95139e-016 -1.59028e-015 2.78299e-015 -2.38542e-015 4.77083e-015 -1.96349e-006 5.26388e-007 -7.89711e-007 -1.62751e-006 -5.49385e-007 -2.00098e-006 2.78299e-015 -2.38542e-015 4.77083e-015 -1.96349e-006 5.26388e-007 -7.89711e-007 -1.62751e-006 -5.49385e-007 -2.00098e-006 8.47087 -66.2693 25.1459 172.125 31.9898 -163.264 7.37369 70.0789 7.30348 -8.46849 -66.2874 -25.1774 -172.096 31.9779 163.233 -7.36061 70.0889 -7.33054 
0.00116838 23.2863 121.552 -0.0122375 0.0122375 180 -0.1498 18.4305 -0.153234 -0.266874 36.8614 -0.275738 -0.266874 36.8614 -0.275738 -1.51618e-005 -13.5203 -4.37802e-006 1.23555e-007 -2.54711 1.24625e-007 58.2917 -55.6277 76.8238 -69.5459 16.4868 -30.941 53.23 -11.0407 -84.4123 3.21431 -19.9948 15.917 -1.55199e-007 -1.42908e-007 3.18669e-008 1.59028e-015 3.97569e-015 -0 -1.55199e-007 -1.42908e-007 3.18669e-008 1.10348e-032 7.95139e-016 -7.95139e-016 -1.55199e-007 -1.42908e-007 3.18669e-008 1.59028e-015 6.95746e-016 7.95139e-016 -1.55199e-007 -1.42908e-007 3.18669e-008 -1.55199e-007 -1.42908e-007 3.18669e-008 1.59028e-015 6.95746e-016 7.95139e-016 -1.55199e-007 -1.42908e-007 3.18669e-008 1.10348e-032 7.95139e-016 -7.95139e-016 -1.55199e-007 -1.42908e-007 3.18669e-008 1.59028e-015 6.95746e-016 7.95139e-016 -1.55199e-007 -1.42908e-007 3.18669e-008 -1.55199e-007 -1.42908e-007 3.18669e-008 1.59028e-015 6.95746e-016 7.95139e-016 -1.55199e-007 -1.42908e-007 3.18669e-008 -32.449 -35.5201 -64.3347 80.4917 24.7791 32.5219 4.95814 -3.09951 93.0003 -1.20639 -7.77445 -59.8337 -2.21556e-006 -1.17391e-007 -2.82993e-007 -6.55989e-015 -1.59028e-015 6.36111e-015 -3.97569e-016 0 6.36111e-015 2.98177e-015 1.59028e-015 -0 -2.21556e-006 -1.17391e-007 -2.82993e-007 -6.36111e-015 1.59028e-015 3.18055e-015 -3.57812e-015 7.95139e-016 6.36111e-015 -2.21556e-006 -1.17391e-007 -2.82993e-007 -6.36111e-015 1.59028e-015 3.18055e-015 -3.57812e-015 7.95139e-016 6.36111e-015 2.98177e-015 1.59028e-015 -0 -2.21556e-006 -1.17391e-007 -2.82993e-007 -6.36111e-015 1.59028e-015 3.18055e-015 -3.57812e-015 7.95139e-016 6.36111e-015 -2.21556e-006 -1.17391e-007 -2.82993e-007 -6.36111e-015 1.59028e-015 3.18055e-015 -3.57812e-015 7.95139e-016 6.36111e-015 8.47087 -66.2693 25.1459 172.125 31.9898 -163.264 7.37369 70.0789 7.30348 -8.46849 -66.2874 -25.1774 -172.096 31.978 163.233 -7.36065 70.0889 -7.33049 
0.00116838 23.2863 121.552 -0.0122375 0.0122375 180 -0.15086 18.7384 -0.155668 -0.267864 37.4771 -0.280358 -0.267864 37.4771 -0.280359 2.25324e-006 -16.0463 1.61531e-006 1.94036e-008 -1.08835 1.32825e-007 62.0615 -55.7047 81.7304 -69.546 16.4973 -30.9587 53.1494 -11.3928 -84.7473 2.77641 -21.1996 16.7366 -1.45004e-006 9.60232e-007 1.06972e-007 1.27222e-014 -8.15017e-015 4.77083e-015 -1.55617e-007 -1.42351e-007 3.24018e-008 3.18055e-015 2.5842e-015 -1.59028e-015 -1.45004e-006 9.60232e-007 1.06972e-007 1.27222e-014 -9.64106e-015 3.97569e-015 -1.55617e-007 -1.42351e-007 3.24018e-008 -1.45004e-006 9.60232e-007 1.06972e-007 1.27222e-014 -9.64106e-015 3.97569e-015 -1.55617e-007 -1.42351e-007 3.24018e-008 3.18055e-015 2.5842e-015 -1.59028e-015 -1.45004e-006 9.60232e-007 1.06972e-007 1.27222e-014 -9.64106e-015 3.97569e-015 -1.55617e-007 -1.42351e-007 3.24018e-008 -1.45004e-006 9.60232e-007 1.06972e-007 1.27222e-014 -9.64106e-015 3.97569e-015 -1.55617e-007 -1.42351e-007 3.24018e-008 -34.1063 -36.0449 -67.5964 80.4635 25.0146 32.6761 4.86652 -2.93564 93.6515 -1.2064 -7.77444 -59.8338 6.46966e-008 1.55915e-006 3.00122e-006 1.90147e-007 -1.12915e-007 -3.87119e-006 6.46966e-008 1.55915e-006 3.00122e-006 -3.97569e-015 0 -3.18055e-015 6.46966e-008 1.55915e-006 3.00122e-006 1.90147e-007 -1.12915e-007 -3.87119e-006 6.46966e-008 1.55915e-006 3.00122e-006 6.46966e-008 1.55915e-006 3.00122e-006 1.90147e-007 -1.12915e-007 -3.87119e-006 6.46966e-008 1.55915e-006 3.00122e-006 -3.97569e-015 0 -3.18055e-015 6.46966e-008 1.55915e-006 3.00122e-006 1.90147e-007 -1.12915e-007 -3.87119e-006 6.46966e-008 1.55915e-006 3.00122e-006 6.46966e-008 1.55915e-006 3.00122e-006 1.90147e-007 -1.12915e-007 -3.87119e-006 6.46966e-008 1.55915e-006 3.00122e-006 8.47087 -66.2693 25.1459 172.125 31.9898 -163.264 7.37369 70.0789 7.30348 -8.46849 -66.2874 -25.1774 -172.096 31.978 163.233 -7.36065 70.0889 -7.33049 
